<svg width="347" height="45" viewBox="0 0 347 45" fill="none" xmlns="http://www.w3.org/2000/svg">
<path d="M153.984 8.6C159.637 8.6 162.464 10.7547 162.464 15.064C162.464 16.9627 161.792 18.52 160.448 19.736C159.125 20.952 157.547 21.56 155.712 21.56C153.877 21.56 152.32 21.2613 151.04 20.664V23.768C151.04 26.0507 151.104 27.608 151.232 28.44C151.381 29.272 151.584 29.7947 151.84 30.008C152.331 30.4133 153.109 30.616 154.176 30.616L154.24 31H145.6L145.664 30.616C146.731 30.616 147.509 30.4133 148 30.008C148.533 29.56 148.8 27.48 148.8 23.768V15.832C148.8 13.5493 148.725 11.992 148.576 11.16C148.448 10.328 148.256 9.80533 148 9.592C147.509 9.18667 146.731 8.984 145.664 8.984L145.6 8.6H153.984ZM151.04 9.336V19.864C152.149 20.4613 153.451 20.76 154.944 20.76C156.459 20.76 157.675 20.2907 158.592 19.352C159.509 18.392 159.968 16.9627 159.968 15.064C159.968 12.696 159.2 11.1173 157.664 10.328C156.405 9.66667 154.891 9.336 153.12 9.336H151.04ZM175.03 8.312C178.464 8.312 181.206 9.368 183.254 11.48C185.323 13.5707 186.358 16.2907 186.358 19.64C186.358 22.968 185.355 25.752 183.35 27.992C181.366 30.2107 178.667 31.32 175.254 31.32C171.84 31.32 169.088 30.2 166.998 27.96C164.928 25.72 163.894 22.936 163.894 19.608C163.894 16.2587 164.886 13.5387 166.87 11.448C168.875 9.35733 171.595 8.312 175.03 8.312ZM175.222 30.584C177.952 30.584 180.022 29.6027 181.43 27.64C182.859 25.656 183.574 23.0533 183.574 19.832C183.574 16.6107 182.827 14.008 181.334 12.024C179.84 10.04 177.728 9.048 174.998 9.048C172.288 9.048 170.219 10.0293 168.79 11.992C167.382 13.9547 166.678 16.5573 166.678 19.8C166.678 23.0213 167.424 25.624 168.918 27.608C170.411 29.592 172.512 30.584 175.222 30.584ZM211.941 15.832V23.768C211.941 26.0507 212.005 27.608 212.132 28.44C212.282 29.272 212.484 29.7947 212.74 30.008C213.231 30.4133 214.01 30.616 215.076 30.616L215.14 31H206.564L206.628 30.616C207.674 30.616 208.442 30.424 208.932 30.04C209.338 29.72 209.572 28.6747 209.636 26.904C209.679 26.2 209.7 25.1547 209.7 23.768V10.232L200.74 30.68L191.492 13.368V23.704C191.492 25.8373 191.588 27.384 191.78 28.344C191.994 29.2827 192.324 29.9013 192.772 30.2C193.22 30.4773 193.967 30.616 195.012 30.616L195.076 31H187.204L187.268 30.616C188.058 30.616 188.644 30.5627 189.028 30.456C189.434 30.328 189.775 30.008 190.052 29.496C190.33 28.984 190.5 28.3013 190.564 27.448C190.65 26.5947 190.692 25.3467 190.692 23.704V15.864C190.692 14.2213 190.65 12.9733 190.564 12.12C190.5 11.2667 190.33 10.584 190.052 10.072C189.775 9.56 189.434 9.25067 189.028 9.144C188.644 9.016 188.058 8.952 187.268 8.952L187.204 8.6H191.492L201.38 27.256L209.54 8.6H215.14L215.076 8.952C214.01 8.952 213.231 9.15467 212.74 9.56C212.207 10.008 211.941 12.0987 211.941 15.832ZM223.449 15.832V23.768C223.449 26.0507 223.513 27.608 223.641 28.44C223.79 29.272 223.993 29.7947 224.249 30.008C224.739 30.4133 225.518 30.616 226.585 30.616L226.649 31H218.009L218.073 30.616C218.606 30.616 219.022 30.5947 219.321 30.552C219.619 30.5093 219.897 30.392 220.153 30.2C220.43 30.008 220.622 29.7947 220.729 29.56C220.857 29.304 220.963 28.888 221.049 28.312C221.155 27.5653 221.209 26.0507 221.209 23.768V15.832C221.209 13.6133 221.145 12.0667 221.017 11.192C220.889 10.3173 220.697 9.77333 220.441 9.56C219.929 9.15467 219.139 8.952 218.073 8.952L218.009 8.6H226.649L226.585 8.952C225.518 8.952 224.739 9.15467 224.249 9.56C223.715 10.008 223.449 12.0987 223.449 15.832ZM249.597 15.8V31.16H248.605L233.533 12.12V23.704C233.533 25.8373 233.629 27.3733 233.821 28.312C234.013 29.2507 234.333 29.8693 234.781 30.168C235.229 30.4667 235.965 30.616 236.989 30.616L237.053 31H229.181L229.245 30.616C230.269 30.616 231.005 30.4667 231.453 30.168C231.901 29.8693 232.221 29.2507 232.413 28.312C232.626 27.3733 232.733 25.8373 232.733 23.704V15.8C232.733 13.6667 232.626 12.1413 232.413 11.224C232.221 10.2853 231.901 9.67733 231.453 9.4C231.026 9.10133 230.29 8.952 229.245 8.952L229.181 8.6H233.533L248.797 27.64V15.8C248.797 13.688 248.69 12.1627 248.477 11.224C248.285 10.2853 247.965 9.67733 247.517 9.4C247.069 9.10133 246.322 8.952 245.277 8.952L245.213 8.6H253.149L253.085 8.952C252.039 8.952 251.293 9.10133 250.845 9.4C250.397 9.67733 250.077 10.2853 249.885 11.224C249.693 12.1627 249.597 13.688 249.597 15.8ZM272.769 31C271.681 31 270.316 29.7307 268.673 27.192C267.969 26.1253 267.233 25.0587 266.465 23.992C265.719 22.9253 264.876 22.008 263.937 21.24C262.999 20.472 262.06 20.0773 261.121 20.056V23.768C261.121 26.968 261.271 28.888 261.569 29.528C261.697 29.784 261.889 30.008 262.145 30.2C262.401 30.392 262.679 30.5093 262.977 30.552C263.297 30.5947 263.713 30.616 264.225 30.616L264.289 31H255.681L255.745 30.616C256.812 30.616 257.591 30.4133 258.081 30.008C258.615 29.56 258.881 27.48 258.881 23.768V15.832C258.881 13.5493 258.807 11.992 258.657 11.16C258.529 10.3067 258.337 9.77333 258.081 9.56C257.591 9.15467 256.812 8.952 255.745 8.952L255.681 8.6H264.289L264.225 8.952C263.713 8.952 263.297 8.97333 262.977 9.016C262.679 9.05866 262.401 9.176 262.145 9.368C261.889 9.56 261.697 9.784 261.569 10.04C261.463 10.296 261.377 10.712 261.313 11.288C261.185 12.2267 261.121 13.7413 261.121 15.832V19.48C262.039 19.3307 263.127 18.7333 264.385 17.688C265.665 16.6213 266.785 15.3627 267.745 13.912C268.705 12.44 269.185 11.1387 269.185 10.008C269.185 9.64533 269.068 9.37867 268.833 9.208C268.62 9.03733 268.215 8.952 267.617 8.952L267.553 8.6H275.489L275.425 8.952C273.185 8.952 271.511 9.73067 270.401 11.288C269.868 12.056 269.356 12.8667 268.865 13.72C268.375 14.552 267.628 15.5227 266.625 16.632C265.644 17.72 264.471 18.7013 263.105 19.576C265.175 19.704 266.86 20.504 268.161 21.976C268.951 22.8293 269.793 23.9707 270.689 25.4C271.607 26.8293 272.321 27.864 272.833 28.504C274.028 29.912 275.468 30.616 277.153 30.616L277.217 31H272.769ZM282.176 15.832V23.768C282.176 26.0507 282.24 27.608 282.368 28.44C282.518 29.272 282.72 29.7947 282.976 30.008C283.467 30.4133 284.246 30.616 285.312 30.616L285.376 31H276.736L276.8 30.616C277.334 30.616 277.75 30.5947 278.048 30.552C278.347 30.5093 278.624 30.392 278.88 30.2C279.158 30.008 279.35 29.7947 279.456 29.56C279.584 29.304 279.691 28.888 279.776 28.312C279.883 27.5653 279.936 26.0507 279.936 23.768V15.832C279.936 13.6133 279.872 12.0667 279.744 11.192C279.616 10.3173 279.424 9.77333 279.168 9.56C278.656 9.15467 277.867 8.952 276.8 8.952L276.736 8.6H285.376L285.312 8.952C284.246 8.952 283.467 9.15467 282.976 9.56C282.443 10.008 282.176 12.0987 282.176 15.832ZM289.636 8.6H306.18V9.496L291.012 30.264H296.132C299.353 30.264 301.7 30.0187 303.172 29.528C304.025 29.2507 304.644 28.8667 305.028 28.376C305.412 27.864 305.604 27.2133 305.604 26.424L305.956 26.36V31H288.452V29.976L303.3 9.336C298.585 9.336 295.428 9.528 293.828 9.912C292.079 10.3387 290.948 10.9147 290.436 11.64C290.159 12.0667 290.02 12.568 290.02 13.144L289.636 13.208V8.6ZM322.047 30.616C322.858 30.616 323.423 30.552 323.743 30.424C324.085 30.296 324.255 29.9653 324.255 29.432C324.255 28.8987 323.69 27.0853 322.559 23.992H312.799C311.882 26.7013 311.423 28.408 311.423 29.112C311.423 29.7947 311.594 30.2213 311.935 30.392C312.298 30.5413 312.938 30.616 313.855 30.616L313.919 31H306.719L306.783 30.616C307.402 30.616 307.882 30.5627 308.223 30.456C308.586 30.3493 308.97 30.072 309.375 29.624C309.802 29.1547 310.207 28.4827 310.591 27.608C310.975 26.7333 311.434 25.5067 311.967 23.928L314.815 15.704C315.818 12.8027 316.319 11.0427 316.319 10.424C316.319 9.80533 316.17 9.41067 315.871 9.24C315.573 9.048 314.997 8.952 314.143 8.952L314.079 8.6H319.359L325.023 23.928C325.983 26.4667 326.623 28.0773 326.943 28.76C327.285 29.4427 327.605 29.88 327.903 30.072C328.437 30.4347 329.109 30.616 329.919 30.616L329.983 31H321.983L322.047 30.616ZM317.567 10.328L313.055 23.224H322.303L317.567 10.328ZM345.448 31H330.152L330.216 30.616C330.728 30.616 331.133 30.5947 331.432 30.552C331.752 30.5093 332.04 30.392 332.296 30.2C332.552 30.008 332.733 29.7947 332.84 29.56C332.968 29.304 333.075 28.888 333.16 28.312C333.267 27.5653 333.32 26.0507 333.32 23.768V15.832C333.32 12.6533 333.171 10.7227 332.872 10.04C332.595 9.44267 332.125 9.10133 331.464 9.016C331.144 8.97333 330.728 8.952 330.216 8.952L330.152 8.6H338.76L338.696 8.952C337.629 8.952 336.851 9.15467 336.36 9.56C335.827 10.008 335.56 12.0987 335.56 15.832V24.248C335.56 26.552 335.635 28.088 335.784 28.856C335.933 29.6027 336.285 30.104 336.84 30.36C342.344 30.36 345.096 29.048 345.096 26.424L345.448 26.36V31Z" fill="#F9F9F9"/>
<path fill-rule="evenodd" clip-rule="evenodd" d="M126.294 5.88003C126.037 6.21584 125.618 6.84831 125.364 7.2856C124.619 8.56459 124.294 9.54281 124.294 10.5084C124.294 11.3737 124.573 12.047 125.162 12.6062L125.475 12.9032L125.519 12.2525C125.591 11.178 125.828 10.5706 126.372 10.0697L126.636 9.8258L127.052 10.1744C127.285 10.3689 127.685 10.6225 127.959 10.748C128.521 11.006 128.786 11.2376 129.032 11.6843C129.181 11.9551 129.205 12.0768 129.206 12.5529C129.206 12.8575 129.226 13.1067 129.25 13.1067C129.274 13.1067 129.431 12.9774 129.598 12.8194C130.199 12.2516 130.458 11.5519 130.323 10.8606C130.184 10.1468 129.524 9.20854 128.861 8.78085C128.366 8.46168 127.484 7.66775 127.181 7.26783C127.031 7.07065 126.855 6.77676 126.789 6.61473C126.651 6.27393 126.632 5.59029 126.756 5.39731C126.802 5.327 126.821 5.26953 126.8 5.26953C126.779 5.26953 126.551 5.54423 126.294 5.88003ZM118.152 11.5677C118.238 11.8958 118.138 12.3031 117.87 12.7091C117.743 12.9016 117.35 13.283 116.844 13.703C115.692 14.6604 115.339 15.1794 115.339 15.9137C115.339 16.33 115.597 16.8382 115.957 17.1286L116.19 17.3172L116.221 16.8447C116.266 16.1297 116.463 15.8638 117.228 15.4836C117.476 15.3601 117.794 15.158 117.933 15.0347L118.186 14.8106L118.393 14.995C118.809 15.3672 119.073 16.0819 119.079 16.8513L119.081 17.16L119.274 17.0033C119.54 16.7869 119.794 16.3716 119.924 15.9402C120.126 15.2718 119.923 14.2589 119.373 13.193C119.146 12.754 118.476 11.7528 118.213 11.4597L118.086 11.3177L118.152 11.5677ZM126.834 13.841V15.2569L124.478 15.275L122.122 15.2931L121.751 15.4408C120.791 15.8238 120.351 16.466 120.351 17.4872V17.9252L121.638 17.9438C122.822 17.9608 122.947 17.9725 123.206 18.0904C123.649 18.2914 123.939 18.5392 124.141 18.889L124.328 19.2117L124.346 24.278L124.364 29.3443L124.602 29.4C125.136 29.5253 125.559 29.9799 125.562 30.4317C125.565 30.779 125.38 31.2013 125.154 31.3627L124.946 31.511L129.917 31.4948C134.863 31.4785 134.888 31.4779 135.154 31.3559C136.084 30.9297 136.286 29.9376 135.567 29.3278C135.26 29.0673 134.91 28.9513 134.43 28.9513H134.121L134.103 22.8592L134.085 16.7672L133.867 16.3912C133.614 15.9536 133.251 15.6533 132.723 15.4427C132.35 15.2942 132.333 15.2929 130.509 15.2741L128.672 15.2552L128.814 15.3877C129.105 15.6577 129.377 16.2547 129.554 17.0121C129.636 17.359 129.666 18.107 129.699 20.5746C129.74 23.6462 129.743 23.702 129.887 23.9307C130.064 24.2114 130.445 24.5065 130.694 24.5565C131.307 24.6791 131.646 25.0502 131.646 25.5994C131.646 26.8985 129.578 26.9906 128.785 25.7268C128.385 25.0885 128.371 24.9526 128.343 21.4976C128.329 19.7719 128.284 17.9892 128.242 17.5363C128.115 16.155 127.905 15.2647 127.706 15.2647C127.659 15.2647 127.636 14.7995 127.636 13.8449V12.4252H127.235H126.834V13.841ZM117.41 17.8811C117.41 18.7443 117.391 18.9807 117.315 19.0454C117.044 19.2755 116.934 20.4489 116.882 23.6697C116.838 26.3575 116.83 26.4941 116.694 26.7824C116.616 26.9482 116.475 27.1692 116.381 27.2735C116.176 27.5028 115.598 27.7587 115.286 27.7587C114.73 27.7587 114.336 27.4144 114.337 26.9285C114.337 26.541 114.51 26.3207 114.915 26.1942C115.324 26.0667 115.658 25.8039 115.741 25.5454C115.776 25.4353 115.817 24.2845 115.831 22.9883C115.86 20.3581 115.896 20.0869 116.305 19.3931L116.533 19.0067L115.117 19.024C113.545 19.0432 113.403 19.0713 112.957 19.4504C112.465 19.8689 112.5 19.4701 112.48 24.763L112.462 29.5192H112.184C111.763 29.5192 111.358 29.7118 111.153 30.0098C111.006 30.222 110.983 30.3122 111.009 30.5747C111.059 31.0816 111.454 31.4139 112.084 31.4779C112.275 31.4973 114.87 31.5054 117.85 31.4959L123.268 31.4785L123.552 31.3186C123.862 31.1447 124.091 30.8018 124.091 30.513C124.091 30.1136 123.73 29.7082 123.256 29.5752L123.027 29.5112L123.009 24.7874C122.992 20.306 122.985 20.0533 122.866 19.8648C122.693 19.5873 122.37 19.3088 122.055 19.1641C121.804 19.0488 121.673 19.0395 119.917 19.0129L118.045 18.9845L118.027 17.8913L118.009 16.7981H117.71H117.41V17.8811Z" fill="#F9F9F9"/>
<path d="M21.3846 5.22H14.8066V19H8.35863V5.22H1.78063V0.799999H21.3846V5.22ZM46.1133 0.799999L37.8453 13.098V19H31.3973V13.098L22.9473 0.799999H30.5133L32.3853 3.92C33.4773 5.70533 34.2313 7.41267 34.6473 9.042H34.7513C35.1673 7.44733 35.9039 5.72267 36.9613 3.868L38.7293 0.799999H46.1133ZM67.2147 5.22H60.6367V19H54.1887V5.22H47.6107V0.799999H67.2147V5.22ZM21.4 41H1.76996V22.8H20.724V26.934H8.21796V29.82H18.904V33.824H8.21796V36.554H21.4V41ZM45.6509 31.77C45.6509 34.422 44.8015 36.6233 43.1029 38.374C41.4042 40.1247 39.1682 41 36.3949 41H23.7329V22.8H35.5109C36.8975 22.8 38.1802 22.9647 39.3589 23.294C40.5375 23.6233 41.6035 24.126 42.5569 24.802C43.5275 25.478 44.2815 26.414 44.8189 27.61C45.3735 28.7887 45.6509 30.1753 45.6509 31.77ZM38.7609 31.77C38.7609 28.5287 37.2789 26.908 34.3149 26.908H30.1809V36.58H34.3149C35.7362 36.58 36.8282 36.216 37.5909 35.488C38.3709 34.76 38.7609 33.5207 38.7609 31.77ZM69.0531 41H62.2151L61.3831 38.582H53.3231L52.4131 41H45.6531L53.6091 22.8H60.9671L69.0531 41ZM59.6671 34.24L57.2491 27.792L54.9611 34.24H59.6671Z" fill="white"/>
<line x1="90.5" y1="1" x2="90.5" y2="41" stroke="white"/>
</svg>
