<svg width="64" height="57" viewBox="0 0 64 57" fill="none" xmlns="http://www.w3.org/2000/svg">
<path fill-rule="evenodd" clip-rule="evenodd" d="M6.73452 0.618818C4.95726 1.07231 3.57436 2.73442 3.42747 4.59329C3.39374 5.02153 3.42697 5.59604 3.50141 5.86978C3.63257 6.35219 3.6212 6.38466 3.13005 6.92568C2.3411 7.79486 2.08878 8.47693 2.08591 9.74835C2.08316 10.9945 2.31325 11.7362 2.97653 12.6187L3.40561 13.1895L3.07384 13.8785C2.34073 15.3999 2.61404 17.3852 3.72813 18.6327L4.0158 18.9548L3.76785 19.6172C3.45407 20.456 3.45557 20.7931 3.77472 21.1409C4.04728 21.438 4.62063 21.5082 5.0166 21.293C5.14363 21.224 5.36523 20.8101 5.50913 20.3733C6.07073 18.6684 7.40529 16.9646 8.74872 16.2375C9.65908 15.7447 10.0387 15.7293 10.3811 16.1714C10.7095 16.5952 10.7357 17.9988 10.4377 19.2034C10.2508 19.9588 10.2509 20.0455 10.4393 20.3374C10.5515 20.5112 10.7689 20.6807 10.9227 20.7139C11.0763 20.7471 11.5394 20.8397 11.9516 20.9198C14.0594 21.3289 15.5464 22.7481 16.1867 24.9617C16.2963 25.3406 16.386 25.9542 16.386 26.3254V27H13.7062H11.0265L10.8792 26.5243C10.7983 26.2627 10.7162 25.3735 10.6969 24.5485C10.6566 22.8381 10.5326 22.5602 9.80873 22.5602C9.28585 22.5602 8.93297 22.9032 8.81842 23.5227C8.73036 23.9997 8.82654 26.0152 8.96782 26.6511L9.04527 27H7.61127H6.17728L5.86075 26.2706C5.68663 25.8695 5.45254 25.2133 5.34074 24.8126C5.09067 23.9169 4.71956 23.607 4.10949 23.7843C3.85404 23.8586 3.64381 24.0356 3.53314 24.2694C3.37775 24.5978 3.38949 24.7413 3.64181 25.5968C3.79733 26.1243 3.9526 26.6558 3.9867 26.778C4.04241 26.9771 3.93773 27 2.96854 27C2.34373 27 1.71779 27.0723 1.48421 27.1713C0.955453 27.3957 0.318901 28.1423 0.145023 28.742C0.0510891 29.0662 0.0191116 30.7727 0.0457178 34.0497L0.0849403 38.8795L0.432696 39.4128C0.648294 39.7436 0.992177 40.0507 1.33831 40.2214L1.89617 40.4967V41.4836V42.4705L1.42775 42.7144C0.837036 43.0222 0.462425 43.4278 0.215848 44.0273C-0.0719494 44.7266 -0.0719494 53.7977 0.215848 54.497C0.473667 55.1239 0.854274 55.5255 1.45897 55.8089C1.94039 56.0346 3.05697 56.0431 32 56.0431C60.943 56.0431 62.0596 56.0346 62.541 55.8089C63.1457 55.5255 63.5263 55.1239 63.7841 54.497C64.0719 53.7977 64.0719 44.7266 63.7841 44.0273C63.5376 43.4278 63.163 43.0222 62.5723 42.7144L62.1038 42.4705V41.4899V40.5093L62.6323 40.2506C62.9385 40.1007 63.3194 39.7629 63.5379 39.4473L63.9151 38.9024L63.9543 34.0612C63.9809 30.7758 63.9489 29.0662 63.855 28.742C63.6811 28.1423 63.0445 27.3957 62.5158 27.1713C62.2642 27.0647 61.6208 27 60.8099 27H59.5078L59.3114 26.117C59.2034 25.6313 58.9668 24.9367 58.7855 24.5736C58.377 23.7548 57.3803 22.729 56.5141 22.2359L55.8585 21.8625L55.8583 21.0745C55.8582 20.0662 55.4972 19.0772 54.8617 18.3441L54.3731 17.7804L54.6786 16.804C55.0663 15.5637 55.0886 14.1722 54.739 13.0315C54.6045 12.5922 54.5061 12.2281 54.5204 12.2223C55.5117 11.8253 56.649 10.7417 57.1313 9.73528C57.6189 8.71744 57.8067 7.54242 57.6271 6.63405C57.548 6.23422 57.4225 5.83261 57.3482 5.74153C56.9713 5.28043 55.2233 5.0157 53.8909 5.21777C53.2981 5.30771 53.2351 5.29451 53.2351 5.0795C53.2351 4.58809 52.4697 3.30056 51.7888 2.64664C51.1577 2.0403 51.0551 1.98664 50.6558 2.05235C49.4003 2.25937 48.0906 3.34863 47.4058 4.75553C47.0132 5.56242 46.9357 5.86306 46.8893 6.76001L46.8348 7.81528L46.2838 7.8919C45.9809 7.93414 45.4552 8.08991 45.1157 8.23833L44.4983 8.50801L44.1513 8.08737C43.6303 7.45604 43.1645 7.06268 42.5171 6.70724C41.9632 6.40306 41.9288 6.35219 41.8371 5.70437C41.4916 3.26238 38.973 1.41975 36.5914 1.8669C34.5904 2.2425 32.9749 3.88813 32.7864 5.74255C32.7184 6.41295 32.709 6.42614 32.0939 6.71866C31.7145 6.89917 31.1924 7.32348 30.7596 7.8031L30.0486 8.59109L29.7119 8.31342C29.3836 8.04298 29.3782 8.01659 29.5 7.27477C29.653 6.34369 29.4868 5.26661 29.0572 4.4058C28.6903 3.67071 28.3404 3.40584 27.7364 3.40584C27.1249 3.40584 25.8747 3.80897 25.3827 4.16479L24.9879 4.4502L24.4078 3.86098C23.787 3.23066 22.5328 2.51789 22.0441 2.51789C21.6111 2.51789 20.6143 3.52331 20.204 4.37409C19.9978 4.80196 19.8288 5.40158 19.7891 5.84745C19.7414 6.38137 19.6638 6.61934 19.5216 6.6683C18.7175 6.94521 17.7212 7.48344 17.1684 7.93985C16.8087 8.2368 16.4647 8.47985 16.4038 8.47985C16.343 8.47985 16.2671 8.03752 16.2351 7.49676C16.1665 6.33481 15.7835 5.4579 14.995 4.65709C14.386 4.0387 13.3098 3.51214 12.4915 3.43235C11.9232 3.37692 11.8783 3.34343 11.5299 2.71654C10.8165 1.43294 9.49258 0.609431 8.02861 0.538649C7.57555 0.516704 6.99333 0.552856 6.73452 0.618818ZM8.52913 2.5354C9.22389 2.77159 9.69456 3.20999 10.1163 4.01333C10.6119 4.9576 10.9118 5.15967 12.0299 5.30225C12.7206 5.39029 13.0172 5.49697 13.3636 5.78162C14.1986 6.468 14.3048 6.70991 14.3884 8.11655C14.4646 9.39926 14.4653 9.40179 14.9293 9.83346L15.3937 10.2656L15.1552 11.0535C15.0241 11.4868 14.877 12.1924 14.8286 12.6214L14.7405 13.4015L14.1778 13.4871C13.8682 13.5343 13.5951 13.5526 13.5706 13.5278C13.5462 13.503 13.2685 12.8581 12.9535 12.0946C11.8418 9.40002 10.618 7.28302 9.69768 6.46242C8.58084 5.46652 7.39805 6.02035 7.20443 7.62995C7.10088 8.49025 7.40267 10.5086 7.94779 12.6025C8.184 13.5095 8.32727 14.2695 8.26619 14.2915C7.78428 14.4653 6.55064 15.4538 5.81266 16.2577L4.92017 17.2298L4.71968 16.7212C4.40803 15.9301 4.46798 15.357 4.97063 14.3209C5.5526 13.1212 5.51475 12.648 4.77077 11.8286C3.56724 10.5026 3.58648 9.18437 4.82886 7.83558C5.51325 7.09249 5.59594 6.7779 5.39371 5.68914C5.21533 4.72902 5.27367 4.34288 5.71273 3.57671C5.92696 3.20288 6.20376 2.95413 6.66556 2.72047C7.37444 2.36161 7.87259 2.31227 8.52913 2.5354ZM38.7168 4.12052C39.464 4.56031 39.8426 5.20344 40.0428 6.37261C40.2271 7.44856 40.5592 7.94543 41.2893 8.23718C41.8331 8.45448 42.4257 8.91596 42.7442 9.37033L43.0133 9.75406L42.6419 10.1834C42.0862 10.8263 41.5385 11.6673 40.6738 13.2063L39.8952 14.5917L39.8262 14.1045C39.7884 13.8365 39.7219 13.2748 39.6789 12.8562C39.4697 10.8281 38.8238 8.6941 38.263 8.17871C37.6565 7.62133 36.6966 7.72344 36.1891 8.39917C35.5563 9.24171 34.9944 11.6511 34.802 14.3467C34.7536 15.027 34.6966 15.5835 34.6756 15.5835C34.6546 15.5835 34.438 15.464 34.1943 15.318C33.8578 15.1163 33.5919 15.0629 33.0891 15.096L32.4269 15.1395L32.4319 13.7441C32.4372 12.2865 32.2469 11.4216 31.7288 10.548C31.4909 10.1469 31.491 10.1374 31.7387 9.64433C32.0366 9.05143 32.6112 8.53401 33.2681 8.26712C34.0579 7.94619 34.4428 7.38424 34.5974 6.32644C34.7527 5.26382 35.13 4.59354 35.8149 4.16377C36.7383 3.58419 37.7796 3.56872 38.7168 4.12052ZM51.2331 5.0124C51.5812 5.76462 51.5967 6.9853 51.2676 7.73917C50.8957 8.59097 50.7701 8.64894 49.9769 8.33435C49.6047 8.18682 49.1676 8.01481 49.0054 7.95215C48.7282 7.84509 48.7134 7.78636 48.7583 6.97667C48.8189 5.88931 49.237 5.02331 49.979 4.44868C50.4838 4.05772 50.5338 4.0439 50.7448 4.23773C50.8689 4.35176 51.0886 4.70035 51.2331 5.0124ZM23.0487 5.1754C23.3628 5.46183 23.7558 6.0612 23.7558 6.25363C23.7558 6.29206 23.278 6.3234 22.694 6.3234C21.71 6.3234 21.6323 6.30449 21.6323 6.06564C21.6323 5.77502 21.9407 4.97181 22.1512 4.71417C22.3034 4.52783 22.3841 4.56931 23.0487 5.1754ZM27.6323 5.95883C27.8092 6.62593 27.684 7.26031 27.3976 7.14868C27.2839 7.10428 26.8676 6.9768 26.4726 6.86517C25.7018 6.6475 25.5617 6.41295 25.9752 6.03291C26.2625 5.76881 27.2769 5.30847 27.4006 5.38597C27.4532 5.41908 27.5575 5.67684 27.6323 5.95883ZM55.4679 7.03693C55.9286 7.13054 55.9579 7.33185 55.6599 8.35109C55.4298 9.13769 54.5586 10.1445 53.8596 10.4314C53.4298 10.6079 53.4134 10.6028 52.8909 10.1302L52.3596 9.64941L52.671 9.09634C52.8422 8.79215 53.0708 8.27536 53.1789 7.94796C53.3387 7.46365 53.4495 7.32932 53.7736 7.22682C54.6268 6.95727 54.916 6.92479 55.4679 7.03693ZM24.5677 8.41287C27.4944 8.8963 29.4424 10.0448 30.228 11.75C30.5207 12.3854 30.5609 12.6254 30.551 13.6807C30.5449 14.3435 30.4796 15.0338 30.406 15.2148C30.2757 15.5355 30.2536 15.5411 29.5435 15.4353C28.2524 15.2429 26.3222 15.5302 24.9797 16.1148L24.3923 16.3706L24.0057 16.091C23.5231 15.7419 22.7528 15.6286 22.2631 15.8345C21.9103 15.9829 21.8471 15.9586 21.1053 15.3886C20.125 14.6354 18.8428 14.0075 17.6681 13.7053C17.1709 13.5774 16.729 13.4372 16.686 13.3934C16.5288 13.2338 16.9041 11.5664 17.2697 10.8002C18.2828 8.67761 20.9292 7.81185 24.5677 8.41287ZM9.79561 9.81177C10.5342 11.1448 11.7912 14.0411 11.6979 14.1944C11.6576 14.2607 11.5455 14.315 11.4488 14.315C11.223 14.315 10.354 13.9081 10.2423 13.7501C10.0182 13.4333 9.14107 9.66666 9.14107 9.02124C9.14107 8.61469 9.11484 8.5831 9.79561 9.81177ZM48.9511 9.94319C50.425 10.385 52.1226 11.7531 52.7319 12.9904C53.1787 13.8976 53.2275 15.1853 52.859 16.349C52.6118 17.1295 51.6057 19.0657 50.54 20.812C50.1104 21.5159 49.9874 21.5379 48.56 21.1673C47.4148 20.8698 45.9642 20.1564 44.6999 19.2688C44.1978 18.9163 43.6618 18.6279 43.5088 18.6279C43.145 18.6279 42.6175 19.1709 42.6175 19.5452C42.6175 19.9968 42.9266 20.351 43.9062 21.0222C45.1709 21.8885 46.236 22.4151 47.6525 22.8742L48.8776 23.2713L48.1521 24.2278C47.7532 24.7538 47.0894 25.5917 46.6772 26.0897L45.9277 26.9951L44.925 26.9976C43.6795 27.0006 43.367 27.1767 43.367 27.8755C43.367 28.2029 43.4508 28.433 43.6299 28.5976C43.8825 28.8299 44.2423 28.8407 52.8324 28.8735C59.1182 28.8975 61.8212 28.9493 61.9378 29.0476C62.0441 29.1371 62.1038 29.4785 62.1038 29.9964V30.8055H60.4676C57.7541 30.8055 57.4833 31.0679 57.4826 33.6977C57.4821 35.5911 57.5938 35.974 58.2689 36.3919C58.6142 36.6058 58.9032 36.6397 60.3863 36.6401L62.1038 36.6406V37.4561C62.1038 38.0282 62.0452 38.331 61.9076 38.4709C61.7302 38.6509 58.8436 38.6702 32 38.6702C5.15637 38.6702 2.26978 38.6509 2.0924 38.4709C1.95475 38.331 1.89617 38.0282 1.89617 37.4561V36.6406L3.61371 36.6401C5.09679 36.6397 5.38584 36.6058 5.7311 36.3919C6.40625 35.974 6.51792 35.5911 6.51742 33.6977C6.51667 31.0679 6.24586 30.8055 3.53239 30.8055H1.89617V30.0063C1.89617 29.5538 1.96125 29.1411 2.04606 29.0549C2.16136 28.9379 6.57213 28.9027 21.139 28.9027C34.0443 28.9027 40.2019 28.8602 40.4582 28.7695C40.8121 28.6443 41.1186 28.2108 41.1186 27.8357C41.1186 27.7437 41.002 27.518 40.8596 27.3342C40.6371 27.0468 40.5063 27 39.9259 27H39.2511L39.3417 26.5877C39.5118 25.813 39.4253 23.0504 39.2052 22.2293L38.9973 21.4542L39.5637 19.9907C39.8752 19.1857 40.6309 17.4945 41.2432 16.2323L42.3565 13.9374L43.487 14.8556C44.9353 16.0315 47.8066 17.8668 48.1984 17.8668C48.5977 17.8668 49.113 17.3285 49.113 16.9114C49.113 16.4602 48.6675 16.0586 47.1061 15.1019C45.6468 14.2078 43.5774 12.5789 43.5206 12.2798C43.4633 11.9776 44.7609 10.6078 45.4821 10.2092C46.5167 9.63735 47.6429 9.55097 48.9511 9.94319ZM37.676 12.1277C38.0408 14.2872 38.2487 18.3534 38.0136 18.7296C37.9382 18.8505 37.8163 18.7655 37.5592 18.4125C37.366 18.1472 37.0433 17.7514 36.8423 17.533L36.4767 17.1358L36.6144 15.2497C36.7584 13.2788 36.9021 12.1435 37.1415 11.0853C37.2637 10.5455 37.2984 10.496 37.3863 10.7374C37.4427 10.8922 37.5731 11.5178 37.676 12.1277ZM17.8554 15.7419C18.7626 16.0666 19.6442 16.5815 20.288 17.1626L20.63 17.4714L20.3283 18.0814C20.0655 18.6129 19.8472 19.3295 19.5299 20.7021C19.4646 20.9852 19.3217 21.1118 18.8727 21.2847C18.5572 21.4063 18.0298 21.6938 17.7007 21.9238C17.1341 22.3197 17.0955 22.3291 16.9714 22.1022C16.8994 21.9704 16.5301 21.5313 16.1509 21.1266L15.4613 20.3907L15.6426 19.8622C15.763 19.5112 15.9706 19.2381 16.2611 19.0489C17.2158 18.4268 17.2604 18.3766 17.2604 17.9242C17.2604 17.3879 16.8935 16.9778 16.4172 16.9816C15.5699 16.9884 14.3691 17.9463 13.9594 18.9422C13.7512 19.4481 13.7671 19.4432 13.0336 19.2205L12.4916 19.056L12.4836 17.4882C12.4744 15.7132 12.3603 15.8986 13.7004 15.5114C14.6889 15.2259 16.7299 15.3391 17.8554 15.7419ZM35.0641 18.4226C36.6267 20.0268 37.4237 21.8808 37.5788 24.2727C37.6508 25.3812 37.4779 26.7912 37.2527 26.9325C37.1968 26.9676 37.0908 26.5833 37.0171 26.0785C36.9179 25.399 36.8132 25.103 36.6138 24.9387C36.247 24.6365 35.6798 24.6584 35.3559 24.9874C35.1187 25.2283 35.0973 25.3537 35.1613 26.129L35.2332 27H33.9289C33.2115 27 32.6246 26.9535 32.6246 26.8967C32.6246 26.8399 32.3716 26.4105 32.0625 25.9423C31.7533 25.4742 31.5009 24.9927 31.5015 24.8722C31.5037 24.4537 32.2541 23.3261 32.8054 22.9127C33.6483 22.2805 33.7072 22.0305 33.3106 20.7662C32.9463 19.6051 32.8489 17.9693 33.1057 17.3236C33.2457 16.9713 33.2467 16.9711 33.6535 17.1818C33.8777 17.2978 34.5125 17.8562 35.0641 18.4226ZM30.4698 17.5589L31.1256 17.747L31.1275 18.79C31.1285 19.3636 31.2137 20.1966 31.3169 20.641L31.5045 21.4491L31.0169 21.9862C30.7489 22.2815 30.3966 22.7595 30.2342 23.0482C29.9053 23.6327 29.8128 23.6667 29.4107 23.3502L29.1323 23.131L29.3795 22.3269C29.7186 21.2237 29.7174 19.8616 29.3768 19.5158C29.0687 19.2029 28.4941 19.1882 28.1383 19.4841C27.9297 19.6576 27.8465 19.9276 27.7566 20.7209C27.6372 21.7758 27.424 22.5602 27.2567 22.5602C27.2034 22.5602 26.9915 22.5261 26.786 22.4844C26.4248 22.4109 26.4099 22.3797 26.3322 21.5312C26.2881 21.0487 26.0715 20.0982 25.8511 19.4189C25.6306 18.7396 25.4484 18.1306 25.4461 18.0654C25.4411 17.9165 26.5577 17.5197 27.4153 17.3657C28.218 17.2216 29.5982 17.3089 30.4698 17.5589ZM23.6035 18.8894C24.3165 20.3162 24.5487 21.4786 24.4639 23.1945C24.3977 24.5345 24.0368 26.1605 23.6826 26.7146C23.5799 26.8751 23.3736 27 23.2106 27C22.983 27 22.8902 26.8958 22.7774 26.5135C22.6405 26.0491 22.2558 25.7315 21.8306 25.7315C21.5294 25.7315 21.028 26.2368 20.944 26.6253L20.8611 27.0086L19.5916 26.9726L18.3221 26.9365L18.247 26.0486C18.2057 25.5602 18.1315 24.9593 18.0822 24.7132C18.0113 24.3597 18.0472 24.1953 18.2533 23.9292C18.5533 23.5418 19.9111 22.8139 20.3337 22.8139C20.4906 22.8139 20.7663 22.6854 20.9461 22.5282C21.2151 22.2933 21.2937 22.0774 21.3881 21.3133C21.4513 20.8023 21.5661 20.1463 21.6432 19.8555C21.915 18.8303 22.631 17.6798 22.9366 17.7771C23.0093 17.8002 23.3095 18.3008 23.6035 18.8894ZM53.8395 20.2194C53.9193 20.3972 53.9845 20.713 53.9845 20.9214V21.3005L53.3288 21.2155C52.9681 21.1688 52.6525 21.1127 52.6275 21.0909C52.5658 21.0372 53.1263 20.1101 53.2909 19.9934C53.5292 19.8246 53.6926 19.8919 53.8395 20.2194ZM40.6281 23.275C40.3336 23.6549 40.3129 23.8184 40.5048 24.2459C40.6432 24.5544 41.9564 25.3999 42.5204 25.5437C42.9692 25.658 43.5335 25.1417 43.5335 24.6167C43.5335 24.1016 43.3763 23.9268 42.4292 23.3889C41.4683 22.8432 40.9861 22.8128 40.6281 23.275ZM54.0395 23.2741C55.5953 23.6798 56.5615 24.3885 57.0966 25.5166C57.3016 25.9488 57.4862 26.445 57.5069 26.6194L57.5445 26.9365L53.0165 26.9698C50.5261 26.9882 48.4884 26.9756 48.4884 26.942C48.4884 26.9085 48.8994 26.3471 49.4018 25.6944C49.9042 25.0418 50.5633 24.1486 50.8666 23.7095L51.4181 22.911L52.3578 22.9958C52.8747 23.0425 53.6314 23.1677 54.0395 23.2741ZM28.1995 24.9102C29.0401 25.3217 30.3761 26.5219 30.3761 26.8655C30.3761 26.9556 29.5872 27 27.9894 27C25.766 27 25.6087 26.9847 25.6913 26.778C25.7399 26.6558 25.9005 26.0548 26.0482 25.4422L26.3165 24.3284L26.8161 24.4031C27.091 24.4442 27.7135 24.6724 28.1995 24.9102ZM4.64423 33.723V34.7378H3.2702H1.89617V33.723V32.7082H3.2702H4.64423V33.723ZM62.1038 33.723V34.7378H60.7298H59.3558V33.723V32.7082H60.7298H62.1038V33.723ZM60.2302 41.5243V42.4757H40.0568C20.05 42.4757 19.8814 42.4778 19.6337 42.7294C19.2617 43.1071 19.3006 43.786 19.713 44.1155L20.0422 44.3784H40.9231C56.9973 44.3784 61.8385 44.4134 61.9539 44.5307C62.0383 44.6163 62.1038 45.0269 62.1038 45.4699V46.2568L60.3863 46.3007C58.9614 46.3371 58.6009 46.3863 58.2704 46.5894C57.553 47.0302 57.4555 47.3894 57.5026 49.4187L57.5445 51.2242L57.9525 51.6386L58.3606 52.0529L60.2321 52.0937L62.1038 52.1346V52.9409C62.1038 53.5048 62.0449 53.8072 61.9076 53.9466C61.7302 54.1266 58.8436 54.1459 32 54.1459C5.15637 54.1459 2.26978 54.1266 2.0924 53.9466C1.95513 53.8072 1.89617 53.5048 1.89617 52.9409V52.1346L3.76785 52.0937L5.63941 52.0529L6.0475 51.6386L6.45546 51.2242L6.49743 49.4187C6.54452 47.3894 6.44697 47.0302 5.7296 46.5894C5.39908 46.3863 5.03858 46.3371 3.61371 46.3007L1.89617 46.2568V45.4601C1.89617 44.9537 1.9565 44.6123 2.06155 44.5238C2.17634 44.4271 4.43163 44.3739 9.44236 44.3498L16.658 44.315L16.8967 44.0155C17.206 43.6276 17.1993 43.2266 16.8765 42.8099L16.6177 42.4757H10.1937H3.76985V41.5243V40.5729H32H60.2302V41.5243ZM4.64423 49.1987V50.2135H3.2702H1.89617V49.1987V48.1839H3.2702H4.64423V49.1987ZM62.1038 49.1987V50.2135H60.7298H59.3558V49.1987V48.1839H60.7298H62.1038V49.1987Z" fill="white"/>
</svg>
